# xmcd CD database file
#
# Track frame offsets:
#	150
#	20369
#	40244
#	58548
#	74654
#	86812
#	98751
#	122203
#	147915
#	167792
#	193552
#	212794
#	236940
#	259428
#
# Disc length: 3681 seconds
#
# Revision: 0
# Processed by: cddbd v1.5.2PL0 Copyright (c) Steve Scherf et al.
# Submitted via: Feurio! 1.68 - http://www.feurio.com
#
DISCID=d60e5f0e
DTITLE=BBC Blues Sessions   Volume 6 - Derrin Nauendorf, Andy Fairweather Low, 
DTITLE=Deitra Farr, The Barcodes
DYEAR=1900
DGENRE=
TTITLE0=Derrin Nauendorf - Shipwrecked
TTITLE1=Derrin Nauendorf - I Won't Turn My Back
TTITLE2=Derrin Nauendorf - Universe Demands
TTITLE3=Andy Fairweather Low - I Don't Need
TTITLE4=Andy Fairweather Low - Sweet Soulful Music
TTITLE5=Andy Fairweather Low - My Baby Left Me
TTITLE6=Deitra Farr - My Turn, My Time
TTITLE7=Deitra Farr - Waiting For You
TTITLE8=Deitra Farr - Je Me Souviens
TTITLE9=Deitra Farr - When They Really Love You
TTITLE10=The Barcodes - Halfway To Nowhere
TTITLE11=The Barcodes - Paint My Mailbox Blue
TTITLE12=The Barcodes - Time, Talk and Trouble
TTITLE13=The Barcodes - Everything Or Nothing
EXTD=
EXTT0=
EXTT1=
EXTT2=
EXTT3=
EXTT4=
EXTT5=
EXTT6=
EXTT7=
EXTT8=
EXTT9=
EXTT10=
EXTT11=
EXTT12=
EXTT13=
PLAYORDER=
